<?xml version="1.0" standalone="no"?>
<!DOCTYPE svg PUBLIC "-//W3C//DTD SVG 20010904//EN"
 "http://www.w3.org/TR/2001/REC-SVG-20010904/DTD/svg10.dtd">
<svg version="1.0" xmlns="http://www.w3.org/2000/svg"
 width="521.000000pt" height="521.000000pt" viewBox="0 0 521.000000 521.000000"
 preserveAspectRatio="xMidYMid meet">
<metadata>
Created by potrace 1.14, written by Peter Selinger 2001-2017
</metadata>
<g transform="translate(0.000000,521.000000) scale(0.100000,-0.100000)"
fill="#000000" stroke="none">
<path d="M895 4839 c-148 -78 -237 -154 -280 -238 -48 -96 -57 -151 -61 -386
-4 -257 8 -344 60 -440 53 -98 53 -99 -13 -169 -74 -79 -124 -142 -146 -186
-10 -19 -48 -75 -85 -125 -37 -49 -82 -119 -101 -155 -18 -36 -47 -86 -66
-111 -18 -26 -33 -51 -33 -56 0 -6 -13 -39 -29 -74 -27 -61 -95 -268 -123
-374 -9 -34 -13 -125 -13 -290 0 -321 15 -507 50 -605 16 -47 72 -151 85 -160
4 -3 15 -26 23 -51 9 -25 31 -75 51 -110 19 -35 39 -82 45 -104 14 -52 19 -58
65 -79 46 -22 96 -70 96 -93 0 -20 57 -139 79 -166 20 -23 74 -52 138 -72 26
-9 57 -20 68 -25 11 -5 45 -19 75 -31 30 -13 72 -33 93 -46 34 -22 138 -62
257 -99 25 -8 51 -16 58 -19 7 -2 14 -5 17 -5 2 -1 28 -10 57 -21 78 -30 143
-37 225 -25 45 7 58 5 88 -14 19 -12 56 -23 82 -26 27 -2 59 -7 73 -11 74 -18
215 -37 265 -35 17 0 52 6 78 13 37 10 59 10 95 1 70 -17 123 -23 241 -27 58
-1 135 -8 171 -15 58 -11 242 -19 465 -20 75 -1 154 5 204 15 12 2 41 -2 65
-9 23 -7 81 -14 127 -15 171 -4 244 -9 261 -16 10 -4 32 0 50 10 18 9 46 18
63 20 16 2 52 7 78 10 33 4 63 17 94 41 31 24 56 34 84 36 62 2 119 6 122 8
13 10 92 5 129 -7 40 -14 53 -15 90 -3 24 7 60 12 80 11 36 -2 65 8 96 33 27
22 57 52 67 69 6 10 20 19 33 22 82 15 160 71 243 175 45 57 79 116 79 138 0
10 6 26 14 37 15 22 42 110 50 164 2 19 9 37 14 40 10 7 66 233 82 331 20 124
25 216 25 460 0 405 -10 482 -98 720 -19 52 -40 118 -46 147 -7 28 -44 114
-83 190 -167 328 -161 310 -113 347 20 15 35 36 35 47 0 11 14 35 31 52 18 18
40 56 51 89 10 32 27 73 37 91 10 18 32 57 49 88 17 32 43 92 57 135 64 188
33 483 -63 614 -36 49 -131 126 -188 151 -147 66 -470 62 -609 -8 -108 -54
-302 -208 -372 -293 -6 -8 -24 -26 -39 -40 -15 -14 -44 -49 -66 -77 l-38 -53
-50 20 c-27 11 -93 41 -147 68 -119 60 -228 100 -297 110 -112 15 -650 7 -836
-13 -70 -7 -207 -16 -305 -20 -127 -5 -168 -12 -229 -38 l-49 -21 -27 31 c-15
17 -36 55 -45 84 -32 96 -108 225 -177 300 -44 48 -157 119 -238 149 -58 22
-84 25 -235 27 -157 3 -174 1 -210 -18z"/>
</g>
</svg>
